<svg xmlns="http://www.w3.org/2000/svg" xmlns:xlink="http://www.w3.org/1999/xlink" version="1.1" id="Layer_1" x="0px" y="0px" viewBox="0 0 1587.25 388.27" style="enable-background:new 0 0 1587.25 388.27;" xml:space="preserve"> <style type="text/css"> .st0{fill:#010101;} </style> <g> <path class="st0" d="M197.63,192.21c-5.64-5.98-11.62-9.06-20.16-9.06c-16.75,0-25.29,13.5-25.29,28.71 c0,15.21,10.25,27.51,26.14,27.51c8.55,0,14.53-3.08,19.65-9.06l10.94,10.94c-8.03,8.89-18.96,12.47-30.76,12.47 c-24.95,0-42.38-17.26-42.38-42.2s17.09-42.72,42.38-42.72c11.79,0,23.07,4.1,31.1,12.82L197.63,192.21z"></path> <path class="st0" d="M675.35,168.8c14.01,0,25.46,11.45,25.46,25.46c0,14.01-11.45,25.46-25.46,25.46s-25.46-11.45-25.46-25.46 C649.89,180.25,661.34,168.8,675.35,168.8z M675.35,208.45c7.86,0,14.18-6.32,14.18-14.18c0-7.86-6.32-14.18-14.18-14.18 c-7.86,0-14.18,6.32-14.18,14.18C661.17,202.12,667.49,208.45,675.35,208.45z"></path> <path class="st0" d="M233.69,216.82c0,14.18,13.16,23.58,27.34,23.58c9.4,0,16.23-4.79,22.22-12.13l11.62,8.89 c-8.55,11.11-20.34,16.57-35.88,16.57c-25.63,0-41.69-18.45-41.69-42.55c0-24.27,17.6-42.55,41.87-42.55 c28.53,0,39.47,21.87,39.47,42.72v5.47H233.69z M282.22,204.52c-0.34-13.5-7.86-23.58-23.41-23.58 c-15.21,0-25.12,12.82-25.12,23.58H282.22z"></path> <path class="st0" d="M318.28,122.49h15.38v129.18h-15.38V122.49z"></path> <path class="st0" d="M401.17,191.01c-3.59-4.44-8.89-8.03-16.58-8.03c-7.17,0-13.5,3.25-13.5,9.06c0,9.74,13.84,11.11,20.68,12.65 c13.33,3.24,23.58,8.37,23.58,23.58c0,18.28-16.75,25.46-32.81,25.46c-13.33,0-23.24-3.41-31.27-14.35l11.62-9.57 c4.96,4.96,10.76,9.57,19.65,9.57c7.86,0,16.41-3.25,16.41-10.25c0-9.23-12.82-10.94-19.48-12.48 c-13.16-3.24-24.78-7.52-24.78-23.06c0-16.92,15.55-24.95,30.76-24.95c10.76,0,21.87,3.76,27.68,13.33L401.17,191.01z"></path> <path class="st0" d="M442.86,130.35c6.15,0,11.28,5.13,11.28,11.28c0,6.15-5.13,11.28-11.28,11.28c-6.15,0-11.28-5.13-11.28-11.28 C431.58,135.48,436.71,130.35,442.86,130.35z M435.18,170.68h15.38v80.99h-15.38V170.68z"></path> <path class="st0" d="M546.76,251.67h-15.38V239.2h-0.34c-3.93,8.54-14.18,14.52-26.66,14.52c-15.72,0-29.39-9.4-29.39-30.93v-52.11 h15.38v47.85c0,15.2,8.71,20.85,18.46,20.85c12.82,0,22.55-8.2,22.55-27v-41.69h15.38V251.67z"></path> <path class="st0" d="M613.07,191.01c-3.59-4.44-8.89-8.03-16.58-8.03c-7.17,0-13.5,3.25-13.5,9.06c0,9.74,13.84,11.11,20.68,12.65 c13.33,3.24,23.58,8.37,23.58,23.58c0,18.28-16.75,25.46-32.81,25.46c-13.33,0-23.24-3.41-31.27-14.35l11.62-9.57 c4.96,4.96,10.76,9.57,19.65,9.57c7.86,0,16.41-3.25,16.41-10.25c0-9.23-12.82-10.94-19.48-12.48 c-13.16-3.24-24.78-7.52-24.78-23.06c0-16.92,15.55-24.95,30.76-24.95c10.76,0,21.87,3.76,27.68,13.33L613.07,191.01z"></path> </g> <g> <path class="st0" d="M798.14,193.07c-5.64-5.98-11.62-9.06-20.16-9.06c-16.75,0-25.29,13.5-25.29,28.71 c0,15.21,10.25,27.51,26.14,27.51c8.55,0,14.53-3.08,19.65-9.06l10.94,10.94c-8.03,8.89-18.96,12.47-30.76,12.47 c-24.95,0-42.38-17.26-42.38-42.2s17.09-42.72,42.38-42.72c11.79,0,23.07,4.1,31.1,12.82L798.14,193.07z"></path> <path class="st0" d="M861.72,169.49c24.09,0,43.06,18.97,43.06,42.55s-18.97,42.55-43.06,42.55c-24.09,0-43.06-18.97-43.06-42.55 S837.62,169.49,861.72,169.49z M861.72,240.23c16.4,0,26.66-11.79,26.66-28.2c0-16.41-10.25-28.2-26.66-28.2 c-16.41,0-26.66,11.79-26.66,28.2C835.06,228.44,845.31,240.23,861.72,240.23z"></path> <path class="st0" d="M963.23,169.49c24.09,0,43.06,18.97,43.06,42.55s-18.97,42.55-43.06,42.55s-43.06-18.97-43.06-42.55 S939.13,169.49,963.23,169.49z M963.23,240.23c16.4,0,26.66-11.79,26.66-28.2c0-16.41-10.25-28.2-26.66-28.2 c-16.41,0-26.66,11.79-26.66,28.2C936.57,228.44,946.82,240.23,963.23,240.23z"></path> <path class="st0" d="M1025.61,123.35h15.38v83.39l34.86-35.03h21.36l-37.76,36.74l41.01,44.08h-21.87l-37.59-42.03v42.03h-15.38 V123.35z"></path> <path class="st0" d="M1123.19,131.21c6.15,0,11.28,5.13,11.28,11.28c0,6.15-5.13,11.28-11.28,11.28c-6.15,0-11.27-5.13-11.27-11.28 C1111.91,136.34,1117.04,131.21,1123.19,131.21z M1115.5,171.54h15.38v80.99h-15.38V171.54z"></path> <path class="st0" d="M1155.31,171.54h15.38v12.47h0.34c3.93-8.54,14.18-14.52,26.66-14.52c15.72,0,29.39,9.4,29.39,30.93v52.11 h-15.38v-47.85c0-15.2-8.72-20.85-18.46-20.85c-12.82,0-22.55,8.2-22.55,27v41.69h-15.38V171.54z"></path> <path class="st0" d="M1331.5,251.85c0,24.43-17.77,41.69-44.26,41.69c-15.38,0-28.19-3.93-39.64-14.52l10.43-12.99 c8.03,8.54,17.08,13.15,28.88,13.15c22.9,0,29.22-14.35,29.22-28.02v-11.96h-0.51c-5.81,9.74-16.92,14.35-28.02,14.35 c-23.75,0-41.36-17.94-41.18-41.52c0-23.92,16.06-42.55,41.18-42.55c10.94,0,22.22,4.96,28.19,13.67h0.34v-11.62h15.38V251.85z M1262.81,212.03c0,16.4,10.25,27.17,26.66,27.17c16.4,0,26.66-10.77,26.66-27.17c0-16.41-10.25-28.2-26.66-28.2 C1273.06,183.84,1262.81,195.63,1262.81,212.03z"></path> <path class="st0" d="M1362.18,176.54h-13.24v-7.05h34.82v7.05h-13.24v36.95h-8.33V176.54z M1392.2,169.49h12.71l11.85,33.75h0.32 l11.85-33.75h12.71v44h-8.33v-36.74h-0.21l-12.82,36.74h-6.73l-12.81-36.74h-0.21v36.74h-8.33V169.49z"></path> </g> </svg>